<svg width="49" height="31" viewBox="0 0 49 31" fill="none" xmlns="http://www.w3.org/2000/svg">
<path d="M31.6055 2.01016H43.6846V4.94063H31.6055V2.01016ZM19.5021 13.6049C22.1723 12.3273 23.5709 10.3838 23.5709 7.38067C23.5709 1.44102 19.151 0 14.0469 0H0V29.8133H14.4404C19.8533 29.8133 24.9332 27.2098 24.9332 21.1551C24.9332 17.4133 23.1652 14.6463 19.5021 13.6049ZM6.55117 5.08594H12.6967C15.0641 5.08594 17.1893 5.7459 17.1893 8.49473C17.1893 11.0256 15.5363 12.0428 13.1932 12.0428H6.55117V5.08594ZM13.5443 24.7516H6.54512V16.5414H13.6836C16.5656 16.5414 18.3881 17.7463 18.3881 20.7979C18.3881 23.801 16.2145 24.7516 13.5443 24.7516ZM48.4072 19.3326C48.4072 12.9449 44.6715 7.62285 37.9145 7.62285C31.3451 7.62285 26.8768 12.5695 26.8768 19.0541C26.8768 25.7748 31.109 30.3885 37.9145 30.3885C43.067 30.3885 46.4031 28.0695 48.0076 23.1229H42.7824C42.2133 24.9695 39.9004 25.9383 38.1021 25.9383C34.6268 25.9383 32.8104 23.9039 32.8104 20.4467H48.3648C48.383 20.0895 48.4072 19.7141 48.4072 19.3326ZM32.8104 16.7049C32.998 13.8652 34.8932 12.0912 37.7268 12.0912C40.7057 12.0912 42.1951 13.841 42.4555 16.7049H32.8104Z" fill="#5BC0BE"/>
</svg>
