<svg width="38" height="28" viewBox="0 0 38 28" fill="none" xmlns="http://www.w3.org/2000/svg">
<path d="M31.3383 0.918335L28.9916 2.75167L19 10.1767L9.00831 2.67834L6.66164 0.845002C6.10881 0.387668 5.43395 0.102576 4.72067 0.0250441C4.00739 -0.0524875 3.28704 0.0809493 2.64885 0.408823C2.01067 0.736696 1.4827 1.2446 1.13036 1.8696C0.778021 2.49461 0.616788 3.20926 0.666639 3.925V25.1733C0.666639 25.8346 0.929329 26.4688 1.39692 26.9364C1.86451 27.404 2.4987 27.6667 3.15997 27.6667H9.00831V13.5133L19 21.0117L28.9916 13.5133V27.6667H34.84C35.5012 27.6667 36.1354 27.404 36.603 26.9364C37.0706 26.4688 37.3333 25.8346 37.3333 25.1733V3.925C37.3677 3.21543 37.1953 2.51114 36.8369 1.89774C36.4786 1.28434 35.9498 0.788254 35.3147 0.469775C34.6797 0.151296 33.9659 0.0241445 33.2599 0.103776C32.554 0.183408 31.8864 0.466394 31.3383 0.918335V0.918335Z" fill="#5BC0BE"/>
</svg>
