<svg width="32" height="32" viewBox="0 0 32 32" fill="none" xmlns="http://www.w3.org/2000/svg">
<path d="M29.6003 0H2.87269C1.64799 0 0.652924 1.00898 0.652924 2.2476V28.9265C0.652924 30.1651 1.64799 31.1741 2.87269 31.1741H29.6003C30.825 31.1741 31.827 30.1651 31.827 28.9265V2.2476C31.827 1.00898 30.825 0 29.6003 0ZM10.0747 26.7206H5.45429V11.8434H10.0817V26.7206H10.0747ZM7.76451 9.81149C6.28235 9.81149 5.08549 8.60767 5.08549 7.13246C5.08549 5.65726 6.28235 4.45344 7.76451 4.45344C9.23971 4.45344 10.4435 5.65726 10.4435 7.13246C10.4435 8.61462 9.24667 9.81149 7.76451 9.81149ZM27.3944 26.7206H22.774V19.4838C22.774 17.7581 22.7392 15.5383 20.3733 15.5383C17.9657 15.5383 17.5969 17.4171 17.5969 19.3585V26.7206H12.9764V11.8434H17.409V13.8752H17.4716C18.0909 12.7062 19.6009 11.4746 21.8485 11.4746C26.5246 11.4746 27.3944 14.5572 27.3944 18.5653V26.7206Z" fill="#5BC0BE"/>
</svg>
