<svg width="32" height="33" viewBox="0 0 32 33" fill="none" xmlns="http://www.w3.org/2000/svg">
<path d="M26.678 5.41225C23.7624 2.48968 19.8795 0.882263 15.7531 0.882263C7.23591 0.882263 0.305246 7.81293 0.305246 16.3301C0.305246 19.0509 1.01501 21.7091 2.36496 24.0541L0.173035 32.0563L8.36319 29.9062C10.6177 31.1378 13.1576 31.785 15.7462 31.785H15.7531C24.2634 31.785 31.3471 24.8543 31.3471 16.3371C31.3471 12.2107 29.5936 8.33482 26.678 5.41225ZM15.7531 29.1825C13.4429 29.1825 11.1814 28.5632 9.21213 27.3941L8.74591 27.1158L3.88887 28.3892L5.18316 23.6505L4.87698 23.1634C3.58966 21.1176 2.91468 18.7586 2.91468 16.3301C2.91468 9.25334 8.67632 3.4917 15.7601 3.4917C19.1906 3.4917 22.4124 4.82773 24.834 7.25625C27.2555 9.68477 28.7446 12.9066 28.7377 16.3371C28.7377 23.4208 22.8299 29.1825 15.7531 29.1825ZM22.7951 19.5658C22.4124 19.371 20.5127 18.4386 20.1578 18.3133C19.803 18.1811 19.5455 18.1185 19.288 18.5081C19.0306 18.8978 18.293 19.7607 18.0633 20.0251C17.8407 20.2826 17.611 20.3174 17.2283 20.1225C14.9598 18.9883 13.4707 18.0976 11.9747 15.5299C11.578 14.848 12.3713 14.8967 13.1089 13.4215C13.2341 13.164 13.1715 12.9413 13.0741 12.7465C12.9767 12.5517 12.2043 10.652 11.8842 9.8796C11.5711 9.12809 11.251 9.23246 11.0144 9.21855C10.7917 9.20463 10.5342 9.20463 10.2768 9.20463C10.0193 9.20463 9.6018 9.30205 9.24692 9.68477C8.89204 10.0744 7.89697 11.0069 7.89697 12.9066C7.89697 14.8062 9.28171 16.6433 9.46959 16.9007C9.66443 17.1582 12.1904 21.055 16.0662 22.732C18.5156 23.7896 19.4759 23.8801 20.7006 23.6992C21.4452 23.5878 22.983 22.7667 23.3031 21.8621C23.6232 20.9575 23.6232 20.1851 23.5258 20.0251C23.4353 19.8511 23.1778 19.7537 22.7951 19.5658Z" fill="#5BC0BE"/>
</svg>
